<svg xmlns="http://www.w3.org/2000/svg" width="101.6" height="101.64" viewBox="-0.013 -0.023 101.676 101.676"><defs><linearGradient id="a" x1="97.25" x2="10.02" y1="86.89" y2="86.89" gradientUnits="userSpaceOnUse"><stop offset="0" stop-color="#172739"/><stop offset="1" stop-color="#00818b"/></linearGradient><linearGradient id="b" x1="111.66" x2="24.75" y1="65.32" y2="65.32" gradientUnits="userSpaceOnUse"><stop offset="0" stop-color="#00818b"/><stop offset="1" stop-color="#172739"/></linearGradient><linearGradient id="c" x1="61.01" x2="61.01" y1="95.3" y2="59.33" gradientUnits="userSpaceOnUse"><stop offset="0" stop-color="#172739"/><stop offset=".01" stop-color="#162b3d"/><stop offset=".08" stop-color="#0f4655"/><stop offset=".16" stop-color="#0a5c69"/><stop offset=".26" stop-color="#056d78"/><stop offset=".38" stop-color="#027883"/><stop offset=".54" stop-color="#007f89"/><stop offset="1" stop-color="#00818b"/></linearGradient></defs><path fill="url(#a)" d="M16.44 91.56a21.89 21.89 0 0 1 0-31l13.71-13.68c-1.11 1.38-12.3 16 1.22 29.47l14.2 14.2a21.9 21.9 0 0 0 31 0l14.2-14.22c13.92 13.92 1.18 28.47.65 29.06l-15.1 15.09a21.89 21.89 0 0 1-31 0z" transform="translate(-10.02 -25.26)"/><path fill="url(#b)" d="M31.37 76.34C17.86 62.83 29 48.26 30.15 46.88l15.21-15.21a21.89 21.89 0 0 1 31 0l28.89 28.93a21.89 21.89 0 0 1 0 31l-13.83 13.79c.53-.59 13.27-15.14-.65-29.06l-14.2-14.2a21.9 21.9 0 0 0-31 0z" transform="translate(-10.02 -25.26)"/><path fill="url(#c)" d="M61 65.65a10.69 10.69 0 1 0 10.7 10.69A10.69 10.69 0 0 0 61 65.65zM61 80a3.7 3.7 0 1 1 3.7-3.7A3.7 3.7 0 0 1 61 80z" transform="translate(-10.02 -25.26)"/></svg>